<svg data-v-423bf9ae="" xmlns="http://www.w3.org/2000/svg" viewBox="0 0 141.36734512159106 60" class="font"><!----><!----><!----><g data-v-423bf9ae="" id="e47cd813-be13-45aa-bdab-5eb6e16ace22" fill="black" transform="matrix(6.1224488604322,0,0,6.1224488604322,-6.095015834262085e-7,-4.285714427340487)"><path d="M1.54 10.50L1.54 10.50L0 10.50L0 0.70L1.54 0.70L1.54 10.50ZM6.85 0.70L6.85 0.70L6.85 2.24L5.46 2.24L5.46 8.67L5.46 10.50L3.92 10.50L3.92 8.67L3.92 2.24L2.44 2.24L2.44 0.70L3.92 0.70L5.46 0.70L6.85 0.70ZM11.26 0.70L11.26 0.70L12.84 10.50L11.27 10.50L10.30 3.70L9.91 6.90L9.91 6.92L10.30 6.92L10.30 8.46L9.66 8.46L9.34 10.50L7.78 10.50L8.11 8.46L7.76 8.46L7.76 6.92L8.36 6.92L9.35 0.70L11.26 0.70ZM17.32 1.16L17.32 1.16L17.32 1.16Q17.65 1.57 17.65 2.07L17.65 2.07L17.65 3.12L17.65 3.40L17.37 3.40L16.39 3.40L16.11 3.40L16.11 3.12L16.11 2.23L14.94 2.23L14.94 3.98L14.94 4.05L16.25 4.05L16.25 4.05Q16.84 4.05 17.25 4.45L17.25 4.45L17.25 4.45Q17.65 4.86 17.65 5.45L17.65 5.45L17.65 6.85L17.65 9.11L17.65 9.11Q17.65 9.62 17.32 10.02L17.32 10.02L17.32 10.02Q16.98 10.40 16.48 10.49L16.48 10.49L16.45 10.50L16.44 10.50L14.60 10.50L14.59 10.50L14.56 10.49L14.56 10.49Q14.06 10.40 13.72 10.02L13.72 10.02L13.72 10.02Q13.38 9.62 13.38 9.11L13.38 9.11L13.38 8.06L13.38 7.78L13.66 7.78L14.66 7.78L14.94 7.78L14.94 8.06L14.94 8.96L16.11 8.96L16.11 5.60L14.78 5.60L14.78 5.60Q14.20 5.60 13.79 5.19L13.79 5.19L13.79 5.19Q13.38 4.79 13.38 4.20L13.38 4.20L13.38 4.10L13.38 3.98L13.38 2.07L13.38 2.07Q13.38 1.57 13.72 1.16L13.72 1.16L13.72 1.16Q14.06 0.78 14.56 0.70L14.56 0.70L14.59 0.70L14.60 0.70L16.44 0.70L16.45 0.70L16.48 0.70L16.48 0.70Q16.98 0.78 17.32 1.16ZM21.38 0.71L23.09 0.71L21.28 4.86L23.06 10.50L22.68 10.50L21.63 10.50L21.42 10.50L20.29 6.90L20.10 7.28L20.10 10.50L19.82 10.50L18.84 10.50L18.56 10.50L18.56 4.07L20.10 4.07L21.38 0.71ZM18.56 1.02L18.56 0.70L20.10 0.70L20.10 4.07L18.56 1.02Z"></path></g><!----><!----></svg>